<?xml version="1.0" standalone="no"?>
<!DOCTYPE svg PUBLIC "-//W3C//DTD SVG 20010904//EN"
 "http://www.w3.org/TR/2001/REC-SVG-20010904/DTD/svg10.dtd">
<svg version="1.0" xmlns="http://www.w3.org/2000/svg"
 width="406.000000pt" height="400.000000pt" viewBox="0 0 406.000000 400.000000"
 preserveAspectRatio="xMidYMid meet">

<g transform="translate(0.000000,400.000000) scale(0.100000,-0.100000)"
fill="#9e9e9e40" stroke="none">
<path d="M1755 3960 c-207 -29 -549 -139 -641 -206 -16 -12 -47 -29 -68 -38
-127 -53 -281 -170 -457 -346 -104 -104 -165 -176 -216 -252 -127 -190 -212
-367 -268 -563 -14 -49 -30 -103 -35 -120 -55 -179 -55 -730 0 -860 4 -11 16
-49 25 -85 91 -344 245 -611 505 -870 178 -179 286 -258 503 -367 162 -81 433
-173 512 -173 13 0 25 -4 27 -10 15 -45 701 -46 793 -1 11 6 74 24 141 40 66
17 142 39 168 51 26 11 52 20 58 20 21 0 294 143 373 196 161 107 341 282 508
494 22 27 124 204 160 275 19 39 51 120 72 180 21 61 43 124 50 140 21 48 54
210 66 330 15 147 6 419 -20 555 -45 238 -138 477 -264 680 -53 86 -91 144
-97 150 -3 3 -28 32 -57 65 -123 145 -236 249 -386 358 -78 56 -83 59 -184
113 -38 20 -73 40 -78 44 -19 16 -179 82 -270 111 -49 16 -151 43 -225 61
-129 29 -146 31 -385 34 -137 1 -277 -1 -310 -6z m570 -50 c331 -61 565 -150
795 -303 114 -76 174 -124 296 -237 36 -33 127 -135 188 -210 33 -41 130 -194
156 -245 14 -28 28 -52 31 -55 6 -5 78 -174 97 -225 33 -92 75 -269 92 -395
14 -100 14 -352 0 -470 -38 -324 -171 -653 -363 -905 -127 -165 -244 -283
-392 -393 -38 -28 -75 -56 -81 -61 -24 -20 -95 -61 -194 -113 -423 -220 -901
-280 -1370 -173 -104 24 -239 66 -272 85 -10 6 -23 10 -28 10 -20 0 -245 116
-320 165 -150 98 -217 154 -354 294 -105 108 -100 103 -207 251 -69 94 -171
291 -213 410 -38 104 -81 269 -97 370 -18 111 -19 478 -1 580 43 250 111 440
241 675 27 49 100 155 159 230 58 74 224 242 281 285 18 14 47 37 65 51 48 40
143 101 231 150 227 124 454 200 710 234 115 16 454 13 550 -5z"/>
<path d="M2148 3674 c-12 -13 -15 -29 -11 -75 l6 -59 -48 0 c-38 0 -48 4 -52
19 -3 12 -16 21 -36 24 -18 3 -53 13 -80 23 -36 14 -51 16 -65 8 -27 -18 -28
-44 0 -44 13 0 30 -5 38 -10 10 -7 -7 -10 -57 -10 l-73 0 -23 46 c-20 39 -25
43 -36 31 -10 -13 -9 -21 4 -47 20 -38 15 -46 -31 -53 -28 -5 -40 -2 -50 11
-12 15 -13 13 -14 -20 0 -20 4 -40 10 -43 5 -3 37 1 71 9 33 9 89 16 124 16
36 0 75 6 91 15 36 19 71 19 81 1 5 -9 35 -16 83 -20 41 -3 84 -7 95 -10 91
-21 115 -10 115 53 0 23 8 48 20 63 l19 25 -24 23 c-13 12 -28 19 -34 15 -6
-3 -11 -35 -11 -70 0 -35 -3 -66 -7 -68 -5 -3 -23 -2 -40 0 l-33 5 0 79 c0 44
-4 79 -8 79 -4 0 -15 -7 -24 -16z"/>
<path d="M1865 3669 c-9 -13 13 -30 35 -26 8 1 15 9 15 17 0 18 -40 26 -50 9z"/>
<path d="M2396 3642 c-9 -15 17 -31 54 -34 41 -4 52 19 13 28 -15 3 -35 8 -45
10 -9 3 -19 1 -22 -4z"/>
<path d="M2463 3566 c-4 -7 -25 -19 -46 -25 -71 -23 -69 -84 3 -84 19 0 30 -5
30 -14 0 -7 8 -16 18 -19 9 -4 32 -13 50 -21 18 -8 48 -17 66 -20 31 -5 34 -3
49 36 9 22 14 48 11 56 -10 25 -39 13 -42 -18 -4 -31 -12 -31 -82 2 -31 15
-35 20 -32 51 2 19 5 43 8 53 6 21 -21 24 -33 3z m-10 -67 c-6 -6 -17 -8 -24
-3 -9 5 -8 9 7 14 23 9 31 3 17 -11z"/>
<path d="M1496 3541 c-9 -10 -21 -32 -25 -47 -7 -27 -56 -62 -87 -64 -7 0 -29
27 -50 60 -36 55 -64 77 -64 49 0 -13 65 -124 88 -151 11 -13 19 -15 40 -7 60
23 92 42 92 55 0 8 15 14 43 16 39 3 42 5 45 33 2 20 -4 38 -18 53 -25 27 -42
28 -64 3z"/>
<path d="M1140 3450 c0 -5 -9 -10 -20 -10 -19 0 -27 -20 -14 -33 9 -8 84 31
84 43 0 6 -11 10 -25 10 -14 0 -25 -4 -25 -10z"/>
<path d="M1240 3424 c0 -9 8 -23 18 -30 22 -16 13 -25 -62 -63 -56 -29 -86
-31 -86 -6 0 7 -7 15 -15 19 -19 7 -19 -8 1 -50 14 -30 21 -34 53 -33 24 0 56
13 96 38 56 36 60 40 59 75 -1 23 -8 42 -20 51 -25 19 -44 19 -44 -1z"/>
<path d="M2730 3395 c-7 -8 -10 -24 -7 -34 4 -15 -2 -22 -26 -30 -39 -14 -80
-14 -95 1 -6 6 -26 13 -43 15 -18 2 -38 8 -46 14 -10 9 -17 8 -29 -1 -24 -21
5 -42 60 -44 31 -2 53 -9 69 -24 29 -27 42 -27 90 -2 34 19 42 19 75 8 20 -7
61 -30 91 -51 30 -20 73 -42 95 -48 51 -14 66 -26 66 -53 1 -22 68 -76 94 -76
8 0 30 18 48 39 19 22 46 45 61 50 25 10 26 12 15 43 -14 42 -13 41 -35 30
-10 -6 -30 -33 -43 -61 -13 -28 -28 -51 -34 -51 -21 1 -46 28 -40 43 3 9 -9
34 -30 62 -20 25 -36 50 -36 54 0 12 -43 28 -62 23 -23 -5 -23 -14 2 -35 30
-26 25 -42 -7 -21 -16 9 -43 27 -60 38 -34 22 -41 44 -22 63 22 22 -13 25 -36
3 -23 -22 -26 -22 -49 -7 -13 9 -26 26 -28 38 -4 28 -21 34 -38 14z"/>
<path d="M1782 3348 c-18 -18 -17 -621 1 -636 18 -16 553 -16 563 -1 3 6 6
149 5 318 -1 273 -3 307 -18 319 -23 17 -534 17 -551 0z m294 -53 c23 -36 14
-38 -14 -4 -13 16 -19 29 -13 29 6 0 18 -11 27 -25z m174 -34 c20 -8 21 -10 6
-10 -21 -1 -56 26 -56 42 0 6 6 3 13 -6 6 -9 23 -21 37 -26z m-367 12 c-13 -2
-35 -2 -50 0 -16 2 -5 4 22 4 28 0 40 -2 28 -4z m364 -117 c54 -33 87 -66 65
-66 -12 0 -142 93 -142 102 0 11 -3 12 77 -36z m-110 -80 c23 -22 68 -63 101
-91 33 -27 63 -59 67 -70 10 -28 16 -55 11 -55 -3 0 -226 221 -226 224 0 0 -4
17 -9 36 -8 28 -8 31 2 16 7 -10 31 -37 54 -60z m-214 22 c-27 -13 -67 -103
-58 -132 31 -106 43 -171 38 -197 -5 -28 -8 -30 -47 -27 l-41 3 -3 129 -3 128
54 54 c30 30 60 54 68 53 8 0 4 -5 -8 -11z m64 -75 c1 -32 10 -46 72 -106 39
-38 71 -73 71 -78 0 -5 3 -9 8 -9 10 0 42 -58 42 -76 0 -12 -12 -14 -52 -12
-52 3 -52 3 -62 43 -5 22 -19 56 -31 75 -47 76 -75 165 -60 189 10 17 11 14
12 -26z"/>
<path d="M950 3333 c0 -10 26 -44 58 -76 93 -92 109 -67 19 30 -51 56 -77 71
-77 46z"/>
<path d="M3020 3335 c0 -8 9 -19 19 -24 15 -8 20 -7 25 5 3 9 4 20 0 25 -9 15
-44 10 -44 -6z"/>
<path d="M853 3294 c-22 -10 -14 -37 20 -65 l32 -28 -73 -1 c-80 0 -99 -14
-67 -50 22 -24 37 -25 81 -4 19 9 41 14 49 10 19 -7 19 -45 0 -52 -23 -9 -18
-33 9 -40 20 -5 33 2 62 31 40 41 39 59 -5 81 -26 13 -48 52 -53 91 -3 28 -26
39 -55 27z"/>
<path d="M2720 3246 c0 -15 52 -46 77 -46 25 0 13 28 -19 44 -39 20 -58 20
-58 2z"/>
<path d="M3304 3121 c-25 -7 -130 -119 -120 -128 10 -11 51 17 101 67 49 50
55 70 19 61z"/>
<path d="M3380 3060 c0 -18 43 -70 57 -70 19 0 16 17 -9 50 -21 29 -48 40 -48
20z"/>
<path d="M759 3005 c-75 -40 -89 -53 -89 -81 0 -29 11 -30 35 -4 10 11 22 20
27 20 18 0 6 -27 -32 -70 -36 -40 -43 -43 -60 -32 -11 6 -22 12 -25 12 -11 0
-4 -24 11 -41 14 -16 15 -23 4 -50 -19 -45 -37 -59 -76 -59 -30 0 -34 -3 -34
-26 0 -14 8 -39 17 -55 16 -27 16 -32 2 -57 -17 -30 -42 -33 -131 -19 -31 6
-48 5 -48 -2 0 -16 36 -31 93 -41 29 -4 64 -11 78 -15 24 -6 29 -2 48 38 12
24 19 51 16 59 -4 9 7 25 30 42 27 21 34 33 30 47 -4 12 2 33 15 54 12 19 19
39 15 45 -3 5 -2 10 4 10 14 0 91 112 91 134 0 10 11 31 25 48 14 16 25 35 25
41 -1 31 -17 31 -71 2z m-174 -345 c-3 -5 -10 -10 -16 -10 -5 0 -9 5 -9 10 0
6 7 10 16 10 8 0 12 -4 9 -10z"/>
<path d="M3264 2966 c-7 -18 20 -66 37 -66 6 0 9 -8 8 -17 -4 -23 42 -103 59
-103 6 0 12 -7 12 -15 0 -22 50 -118 69 -132 9 -7 13 -13 9 -13 -12 0 21 -82
38 -95 13 -9 14 -18 6 -48 -9 -32 -7 -39 13 -61 13 -14 25 -44 29 -70 4 -25
11 -46 15 -46 10 0 31 -46 31 -67 0 -9 -7 -21 -15 -27 -13 -9 -14 -22 -8 -66
l9 -55 69 0 c39 0 76 -4 84 -9 14 -9 50 27 51 52 0 14 -43 16 -68 3 -9 -4 -34
-11 -54 -15 -36 -7 -38 -6 -38 20 0 15 6 32 14 38 7 6 21 42 30 80 16 64 16
70 0 87 -27 29 -42 23 -46 -18 -4 -44 -11 -31 -26 47 -9 49 -8 57 9 76 10 11
19 26 19 33 0 17 -41 50 -62 51 -11 0 -24 15 -33 37 -8 20 -14 37 -13 37 45
17 60 56 32 87 -22 24 -61 25 -66 2 -3 -14 -7 -11 -20 12 -30 58 -31 71 -1 84
21 10 24 14 13 21 -8 5 -26 6 -41 3 -23 -4 -31 1 -53 33 l-26 39 40 37 c22 21
40 40 40 43 0 3 -12 5 -27 5 -16 0 -52 2 -80 6 -44 5 -54 4 -59 -10z m96 -36
c0 -5 -4 -10 -9 -10 -6 0 -13 5 -16 10 -3 6 1 10 9 10 9 0 16 -4 16 -10z m220
-455 c0 -8 -4 -15 -10 -15 -5 0 -10 7 -10 15 0 8 5 15 10 15 6 0 10 -7 10 -15z"/>
<path d="M833 2913 c-18 -7 -17 -53 1 -53 20 0 39 27 32 45 -6 15 -12 17 -33
8z"/>
<path d="M520 2861 c0 -11 -4 -23 -10 -26 -5 -3 -10 -15 -10 -27 0 -14 5 -18
16 -14 9 3 18 6 20 6 2 0 4 9 4 20 0 11 5 20 10 20 6 0 10 9 10 20 0 13 -7 20
-20 20 -13 0 -20 -7 -20 -19z"/>
<path d="M3277 2784 c-11 -11 28 -74 46 -74 21 0 22 23 1 55 -16 24 -34 32
-47 19z"/>
<path d="M2760 2730 c0 -5 5 -10 11 -10 5 0 7 5 4 10 -3 6 -8 10 -11 10 -2 0
-4 -4 -4 -10z"/>
<path d="M1215 2699 c-11 -17 1 -21 15 -4 8 9 8 15 2 15 -6 0 -14 -5 -17 -11z"/>
<path d="M2970 2675 c0 -8 4 -15 10 -15 5 0 7 7 4 15 -4 8 -8 15 -10 15 -2 0
-4 -7 -4 -15z"/>
<path d="M1077 2673 c-4 -3 -7 -11 -7 -17 0 -6 5 -5 12 2 6 6 9 14 7 17 -3 3
-9 2 -12 -2z"/>
<path d="M1256 2665 c-3 -8 -1 -15 4 -15 6 0 10 7 10 15 0 8 -2 15 -4 15 -2 0
-6 -7 -10 -15z"/>
<path d="M2890 2655 c0 -5 5 -17 10 -25 5 -8 10 -10 10 -5 0 6 -5 17 -10 25
-5 8 -10 11 -10 5z"/>
<path d="M1220 2615 c-13 -14 -19 -25 -14 -25 11 0 47 40 41 46 -2 2 -14 -7
-27 -21z"/>
<path d="M2810 2630 c0 -6 7 -13 15 -17 24 -9 27 1 5 15 -13 8 -20 8 -20 2z"/>
<path d="M1061 2604 c0 -11 3 -14 6 -6 3 7 2 16 -1 19 -3 4 -6 -2 -5 -13z"/>
<path d="M2920 2609 c0 -5 5 -7 10 -4 6 3 10 8 10 11 0 2 -4 4 -10 4 -5 0 -10
-5 -10 -11z"/>
<path d="M2860 2582 c0 -4 9 -13 20 -20 23 -14 26 -7 6 14 -16 15 -26 18 -26
6z"/>
<path d="M1499 2551 c-21 -17 -24 -28 -26 -98 -1 -43 -2 -93 -2 -110 -1 -28
-5 -33 -25 -33 -23 0 -24 -3 -24 -70 0 -67 1 -70 24 -70 13 0 24 -6 25 -12 6
-106 4 -120 -15 -127 -15 -6 -20 -20 -23 -70 -3 -41 -13 -76 -29 -104 -32 -56
-31 -74 2 -19 14 23 31 42 39 42 7 0 16 14 20 30 5 21 14 32 32 36 25 7 109 1
171 -12 l34 -7 -5 49 c-3 41 -7 50 -26 52 -20 3 -22 8 -19 70 3 60 5 67 24 70
24 3 34 27 34 82 0 42 -8 56 -35 62 -18 3 -20 12 -21 111 -1 99 -3 109 -24
127 -31 26 -99 27 -131 1z"/>
<path d="M1220 2544 c0 -8 5 -12 10 -9 6 3 10 10 10 16 0 5 -4 9 -10 9 -5 0
-10 -7 -10 -16z"/>
<path d="M2823 2546 c0 -8 8 -11 20 -8 14 4 16 7 5 13 -19 12 -25 11 -25 -5z"/>
<path d="M2970 2555 c0 -5 5 -17 10 -25 5 -8 10 -10 10 -5 0 6 -5 17 -10 25
-5 8 -10 11 -10 5z"/>
<path d="M1031 2541 c-7 -5 -11 -15 -9 -22 3 -10 8 -7 17 9 13 24 12 26 -8 13z"/>
<path d="M3030 2530 c0 -8 5 -22 10 -30 9 -13 10 -13 10 0 0 8 -5 22 -10 30
-9 13 -10 13 -10 0z"/>
<path d="M1055 2489 c-4 -11 -4 -23 -1 -26 3 -4 6 1 6 10 0 10 5 17 10 17 6 0
10 5 10 10 0 18 -19 10 -25 -11z"/>
<path d="M1120 2500 c0 -5 5 -10 10 -10 6 0 10 5 10 10 0 6 -4 10 -10 10 -5 0
-10 -4 -10 -10z"/>
<path d="M2910 2500 c8 -5 29 -9 45 -9 29 1 29 1 5 9 -14 4 -34 8 -45 9 -16 1
-17 -1 -5 -9z"/>
<path d="M2990 2500 c0 -8 5 -22 10 -30 9 -13 10 -13 10 0 0 8 -5 22 -10 30
-9 13 -10 13 -10 0z"/>
<path d="M1160 2459 c0 -5 5 -7 10 -4 6 3 10 8 10 11 0 2 -4 4 -10 4 -5 0 -10
-5 -10 -11z"/>
<path d="M3145 2459 c-11 -16 -1 -19 13 -3 7 8 8 14 3 14 -5 0 -13 -5 -16 -11z"/>
<path d="M3088 2375 c-2 -47 0 -85 5 -85 4 0 7 38 7 85 0 47 -2 85 -4 85 -3 0
-6 -38 -8 -85z"/>
<path d="M489 2407 c-11 -44 -25 -67 -40 -67 -13 0 -11 54 2 67 6 6 8 16 5 22
-11 17 -56 -9 -62 -35 -7 -28 30 -94 52 -94 11 0 14 -8 12 -27 -2 -23 -8 -28
-30 -28 -40 0 -45 -14 -10 -27 30 -12 32 -16 32 -60 l0 -47 -60 -12 c-62 -12
-75 -23 -39 -34 12 -4 33 -20 48 -35 14 -16 36 -31 48 -35 19 -5 25 -1 34 22
8 20 7 33 0 46 -9 14 -8 19 4 24 13 4 16 19 14 67 0 33 1 68 4 76 15 43 37
178 32 192 -14 35 -34 28 -46 -15z m-59 -343 c0 -8 -5 -12 -10 -9 -6 4 -8 11
-5 16 9 14 15 11 15 -7z"/>
<path d="M3000 2421 c0 -22 53 -63 62 -48 4 7 -1 15 -15 20 -12 4 -28 15 -34
24 -9 12 -13 13 -13 4z"/>
<path d="M1000 2376 c0 -8 6 -17 13 -19 9 -4 8 -8 -3 -16 -8 -5 -12 -12 -10
-15 3 -2 16 4 29 15 17 14 19 19 7 19 -9 0 -16 7 -16 15 0 8 -4 15 -10 15 -5
0 -10 -6 -10 -14z"/>
<path d="M922 2355 c0 -16 2 -22 5 -12 2 9 2 23 0 30 -3 6 -5 -1 -5 -18z"/>
<path d="M962 2343 c-2 -42 10 -63 24 -42 4 7 3 9 -4 5 -7 -4 -12 9 -15 36
l-4 43 -1 -42z"/>
<path d="M1107 2355 c-4 -8 -2 -17 3 -20 6 -4 10 3 10 14 0 25 -6 27 -13 6z"/>
<path d="M3000 2361 c0 -6 4 -11 9 -11 4 0 21 -12 36 -27 15 -16 26 -22 23
-14 -6 19 -68 67 -68 52z"/>
<path d="M2980 2336 c0 -2 7 -9 15 -16 9 -7 15 -8 15 -2 0 5 -7 12 -15 16 -8
3 -15 4 -15 2z"/>
<path d="M841 2314 c0 -11 3 -14 6 -6 3 7 2 16 -1 19 -3 4 -6 -2 -5 -13z"/>
<path d="M2420 2277 c0 -21 -8 -25 -57 -37 -77 -17 -119 -39 -173 -93 -48 -47
-85 -117 -95 -179 -3 -21 -10 -38 -14 -38 -33 0 7 -145 71 -258 17 -29 28 -55
25 -58 -2 -2 -43 2 -90 10 -112 20 -481 20 -631 0 -60 -8 -112 -12 -114 -9 -3
3 16 47 42 99 27 52 46 101 44 108 -3 7 -33 -42 -67 -109 -33 -68 -66 -122
-72 -120 -6 1 -14 -4 -16 -10 -3 -10 10 -13 49 -13 53 0 56 -1 109 -58 175
-188 415 -267 710 -233 257 30 465 138 583 304 25 36 46 67 46 71 0 4 12 25
26 47 14 22 24 45 22 51 -2 6 -14 -11 -27 -36 -13 -25 -26 -46 -27 -46 -5 0 6
199 12 227 2 12 0 25 -6 28 -5 3 -10 17 -10 30 0 46 -41 134 -83 178 -65 67
-120 97 -210 112 -34 6 -38 10 -34 31 2 13 0 24 -4 24 -5 0 -9 -11 -9 -23z
m-234 -575 c35 -59 58 -109 53 -111 -6 -2 -14 1 -19 5 -10 11 -110 210 -110
220 0 14 14 -7 76 -114z m564 -57 c-10 -13 -52 -15 -261 -15 -215 0 -249 2
-249 15 0 13 36 15 261 15 231 0 260 -2 249 -15z m-959 -42 c32 -7 31 -8 -21
-14 -59 -6 -86 0 -54 12 25 10 35 10 75 2z"/>
<path d="M2972 2280 c0 -14 2 -19 5 -12 2 6 2 18 0 25 -3 6 -5 1 -5 -13z"/>
<path d="M3473 2284 c-7 -18 11 -39 26 -30 17 11 13 46 -4 46 -9 0 -18 -7 -22
-16z"/>
<path d="M553 2228 c-18 -24 -2 -101 17 -81 8 7 14 51 11 81 -1 6 -5 12 -10
12 -5 0 -13 -6 -18 -12z"/>
<path d="M1045 2200 c-3 -5 -1 -10 4 -10 6 0 11 5 11 10 0 6 -2 10 -4 10 -3 0
-8 -4 -11 -10z"/>
<path d="M950 2175 c0 -8 2 -15 4 -15 2 0 6 7 10 15 3 8 1 15 -4 15 -6 0 -10
-7 -10 -15z"/>
<path d="M3100 2181 c0 -6 4 -13 10 -16 6 -3 7 1 4 9 -7 18 -14 21 -14 7z"/>
<path d="M3292 2145 c0 -16 2 -22 5 -12 2 9 2 23 0 30 -3 6 -5 -1 -5 -18z"/>
<path d="M3050 2153 c0 -5 11 -23 25 -39 14 -16 25 -24 25 -19 0 6 -11 23 -25
39 -14 16 -25 25 -25 19z"/>
<path d="M995 2140 c-3 -5 -1 -10 4 -10 6 0 11 5 11 10 0 6 -2 10 -4 10 -3 0
-8 -4 -11 -10z"/>
<path d="M910 2121 c0 -11 4 -22 9 -25 11 -7 20 14 13 32 -7 19 -22 14 -22 -7z"/>
<path d="M3134 2125 c-8 -21 6 -41 17 -24 12 19 11 39 -1 39 -6 0 -13 -7 -16
-15z"/>
<path d="M1020 2098 c-12 -22 -12 -22 6 -6 10 10 15 20 12 24 -4 3 -12 -5 -18
-18z"/>
<path d="M2864 2098 c3 -13 6 -38 6 -55 0 -23 5 -33 15 -33 8 0 15 8 15 18 0
32 -21 92 -32 92 -6 0 -8 -9 -4 -22z"/>
<path d="M3020 2104 c0 -8 5 -12 10 -9 6 4 8 11 5 16 -9 14 -15 11 -15 -7z"/>
<path d="M1172 2077 c-14 -38 -15 -73 -2 -39 5 12 14 22 20 22 5 0 10 11 10
25 0 35 -14 31 -28 -8z"/>
<path d="M3050 2085 c0 -5 5 -17 10 -25 5 -8 10 -10 10 -5 0 6 -5 17 -10 25
-5 8 -10 11 -10 5z"/>
<path d="M288 2063 c-4 -7 -4 -32 1 -75 1 -5 8 -8 17 -8 12 0 14 9 12 42 -3
38 -20 61 -30 41z"/>
<path d="M3125 2050 c3 -5 8 -10 11 -10 2 0 4 5 4 10 0 6 -5 10 -11 10 -5 0
-7 -4 -4 -10z"/>
<path d="M3162 2040 c-14 -23 -15 -30 -4 -30 5 0 14 11 20 25 14 30 2 34 -16
5z"/>
<path d="M890 2021 c0 -5 5 -13 10 -16 6 -3 10 -2 10 4 0 5 -4 13 -10 16 -5 3
-10 2 -10 -4z"/>
<path d="M1202 2000 c0 -14 2 -19 5 -12 2 6 2 18 0 25 -3 6 -5 1 -5 -13z"/>
<path d="M3565 2010 c-10 -17 42 -30 120 -30 76 0 100 11 66 29 -25 14 -178
14 -186 1z"/>
<path d="M1152 1985 c0 -16 2 -22 5 -12 2 9 2 23 0 30 -3 6 -5 -1 -5 -18z"/>
<path d="M2902 1975 c0 -16 2 -22 5 -12 2 9 2 23 0 30 -3 6 -5 -1 -5 -18z"/>
<path d="M1211 1952 c-1 -23 48 -174 68 -208 6 -10 15 -31 21 -46 13 -39 24
-35 43 15 13 34 14 38 2 23 -8 -11 -15 -23 -15 -28 0 -4 -4 -8 -10 -8 -14 0
-72 137 -95 225 -7 28 -14 40 -14 27z"/>
<path d="M2861 1945 c-1 -16 -8 -55 -17 -85 -24 -87 -26 -97 -11 -64 21 44 40
136 34 159 -3 14 -5 11 -6 -10z"/>
<path d="M1144 1840 c0 -63 1 -89 3 -57 2 31 2 83 0 115 -2 31 -3 5 -3 -58z"/>
<path d="M941 1914 c0 -11 3 -14 6 -6 3 7 2 16 -1 19 -3 4 -6 -2 -5 -13z"/>
<path d="M2914 1835 c0 -55 1 -76 3 -47 2 29 2 74 0 100 -2 26 -3 2 -3 -53z"/>
<path d="M810 1891 c0 -5 5 -13 10 -16 6 -3 10 -2 10 4 0 5 -4 13 -10 16 -5 3
-10 2 -10 -4z"/>
<path d="M982 1875 c0 -16 2 -22 5 -12 2 9 2 23 0 30 -3 6 -5 -1 -5 -18z"/>
<path d="M1600 1890 c14 -4 36 -8 50 -8 22 0 22 1 -5 8 -16 4 -39 8 -50 8 -16
0 -15 -2 5 -8z"/>
<path d="M1750 1889 c0 -5 5 -7 10 -4 6 3 10 8 10 11 0 2 -4 4 -10 4 -5 0 -10
-5 -10 -11z"/>
<path d="M1858 1888 c5 -5 16 -8 23 -6 8 3 3 7 -10 11 -17 4 -21 3 -13 -5z"/>
<path d="M3232 1880 c-18 -29 -15 -38 4 -12 9 13 14 25 12 27 -2 2 -9 -5 -16
-15z"/>
<path d="M1057 1866 c-4 -10 -7 -25 -6 -34 0 -11 4 -9 10 7 5 13 8 29 6 35 -2
5 -6 2 -10 -8z"/>
<path d="M1695 1870 c-4 -6 1 -10 9 -10 11 0 16 -15 19 -62 l3 -63 2 66 c2 51
-2 68 -13 72 -8 4 -17 2 -20 -3z"/>
<path d="M1793 1873 c-7 -2 -13 -11 -13 -19 0 -12 4 -12 30 1 17 9 30 18 30
20 0 6 -31 5 -47 -2z"/>
<path d="M1960 1871 c-46 -5 -51 -7 -28 -13 30 -9 88 0 88 13 0 5 -1 8 -2 7
-2 -1 -28 -4 -58 -7z"/>
<path d="M900 1865 c0 -10 30 -65 35 -65 15 0 2 51 -15 60 -11 6 -20 8 -20 5z"/>
<path d="M1500 1862 c0 -4 21 -6 48 -4 75 5 82 10 15 11 -35 0 -63 -2 -63 -7z"/>
<path d="M2990 1849 c0 -11 8 -28 17 -37 16 -16 16 -16 10 1 -4 10 -7 27 -7
38 0 10 -4 19 -10 19 -5 0 -10 -9 -10 -21z"/>
<path d="M1860 1850 c0 -5 4 -10 9 -10 6 0 13 5 16 10 3 6 -1 10 -9 10 -9 0
-16 -4 -16 -10z"/>
<path d="M3125 1840 c-3 -11 -2 -26 2 -34 6 -12 11 -7 19 19 9 28 8 35 -2 35
-7 0 -15 -9 -19 -20z"/>
<path d="M2020 1841 c0 -5 5 -13 10 -16 6 -3 10 -2 10 4 0 5 -4 13 -10 16 -5
3 -10 2 -10 -4z"/>
<path d="M3080 1838 c0 -9 7 -19 16 -22 15 -6 15 -4 3 11 -7 10 -15 20 -16 22
-2 2 -3 -3 -3 -11z"/>
<path d="M777 1833 c-3 -4 1 -17 9 -28 10 -13 14 -15 14 -4 0 20 -16 43 -23
32z"/>
<path d="M1680 1836 c0 -2 7 -7 16 -10 8 -3 12 -2 9 4 -6 10 -25 14 -25 6z"/>
<path d="M3262 1816 c-16 -36 -15 -41 4 -22 8 9 14 24 12 33 -2 13 -6 10 -16
-11z"/>
<path d="M1798 1823 c6 -2 18 -2 25 0 6 3 1 5 -13 5 -14 0 -19 -2 -12 -5z"/>
<path d="M1868 1823 c7 -3 16 -2 19 1 4 3 -2 6 -13 5 -11 0 -14 -3 -6 -6z"/>
<path d="M3175 1804 c-14 -14 -24 -28 -22 -31 3 -2 18 10 35 27 17 16 27 30
22 30 -5 0 -21 -12 -35 -26z"/>
<path d="M1780 1800 c0 -5 6 -10 14 -10 8 0 18 5 21 10 3 6 -3 10 -14 10 -12
0 -21 -4 -21 -10z"/>
<path d="M1081 1780 c0 -8 4 -22 9 -30 12 -18 12 -2 0 25 -6 13 -9 15 -9 5z"/>
<path d="M2966 1775 c-3 -9 -6 -22 -5 -28 0 -7 5 -1 10 12 5 13 8 26 5 28 -2
2 -6 -3 -10 -12z"/>
<path d="M910 1771 c0 -6 4 -13 10 -16 6 -3 7 1 4 9 -7 18 -14 21 -14 7z"/>
<path d="M812 1735 c0 -16 2 -22 5 -12 2 9 2 23 0 30 -3 6 -5 -1 -5 -18z"/>
<path d="M3200 1745 c-7 -9 -11 -18 -8 -20 3 -3 11 1 18 10 7 9 11 18 8 20 -3
3 -11 -1 -18 -10z"/>
<path d="M940 1730 c0 -5 5 -10 10 -10 6 0 10 5 10 10 0 6 -4 10 -10 10 -5 0
-10 -4 -10 -10z"/>
<path d="M388 1713 c-161 -3 -178 -5 -178 -21 0 -43 103 -285 163 -384 25 -41
32 -47 55 -42 25 5 30 0 66 -72 201 -393 570 -707 999 -848 223 -74 501 -102
732 -76 454 53 849 265 1145 615 55 66 90 113 90 124 0 6 3 11 8 11 8 0 29 34
93 155 45 85 49 90 80 90 30 0 36 6 71 65 21 36 38 70 38 77 0 6 3 13 8 15 11
5 92 209 98 250 l6 37 -182 3 c-113 2 -185 -1 -189 -7 -4 -5 -15 -28 -23 -50
-9 -22 -28 -65 -42 -96 -27 -56 -27 -56 -66 -52 l-39 5 -31 -69 c-62 -136
-143 -269 -207 -339 -15 -17 -40 -44 -54 -60 -79 -90 -236 -206 -381 -283 -74
-39 -224 -94 -295 -107 -37 -7 -39 -2 -23 57 13 46 43 61 170 84 132 23 184
39 276 85 161 82 270 258 202 327 -14 13 -23 14 -67 2 -28 -7 -51 -16 -51 -21
0 -4 -6 -8 -14 -8 -7 0 -36 -18 -63 -40 -72 -57 -93 -63 -116 -34 -13 17 -29
24 -53 24 -19 0 -34 5 -34 10 0 6 3 10 8 10 10 1 95 80 85 80 -5 0 -29 -18
-53 -41 -24 -22 -68 -57 -99 -77 -50 -33 -63 -37 -116 -36 -45 1 -52 -1 -30
-6 58 -15 121 -11 146 8 26 20 72 36 64 21 -3 -4 0 -18 7 -29 11 -19 10 -24
-11 -41 -13 -11 -21 -22 -18 -25 5 -6 161 71 187 92 30 24 142 84 158 84 30 0
20 -60 -14 -83 -16 -11 -49 -39 -74 -62 -25 -23 -66 -50 -92 -59 -27 -10 -48
-22 -48 -27 0 -12 0 -12 64 16 30 13 73 42 94 63 41 41 132 106 139 98 10 -10
-40 -87 -94 -142 -37 -39 -81 -71 -123 -92 -68 -33 -189 -72 -222 -72 -11 0
-59 -9 -106 -21 -101 -24 -119 -39 -128 -110 -4 -27 -10 -49 -14 -49 -5 0 -16
-3 -25 -7 -14 -5 -16 -2 -10 15 9 29 -6 28 -40 -4 -27 -25 -29 -25 -188 -25
-117 0 -164 4 -172 13 -7 7 -17 37 -24 67 -13 63 -25 81 -54 81 -16 0 -18 3
-9 12 9 9 5 14 -20 22 -57 20 -45 35 24 31 35 -1 87 -3 116 -4 30 -1 51 -5 47
-10 -3 -5 -1 -12 5 -16 5 -3 10 1 10 9 0 16 9 18 105 20 l40 1 3 48 c2 31 -1
47 -9 47 -7 0 -9 -10 -6 -30 7 -35 -10 -51 -28 -26 -12 15 -14 15 -28 1 -20
-19 -41 -19 -57 0 -17 20 -50 19 -50 -1 0 -14 -3 -14 -15 -4 -12 10 -18 10
-31 -1 -14 -11 -18 -10 -31 6 -13 19 -15 19 -27 3 -16 -21 -56 -24 -56 -4 0
15 -24 28 -34 19 -3 -4 -6 -15 -6 -25 0 -10 -5 -18 -11 -18 -7 0 -10 -12 -7
-30 5 -34 12 -34 -132 -4 -204 41 -363 156 -404 292 -7 20 -2 18 45 -15 28
-21 68 -55 89 -75 20 -20 62 -48 94 -62 66 -29 66 -29 66 -17 0 5 -21 17 -47
27 -27 9 -68 36 -93 59 -25 23 -61 53 -81 68 -29 21 -35 31 -32 52 3 14 12 25
20 25 19 0 88 -36 143 -74 25 -17 89 -53 143 -81 54 -27 113 -65 132 -82 19
-18 40 -33 47 -33 18 0 -32 49 -94 91 -32 22 -58 42 -58 44 0 14 25 55 34 55
6 0 25 -9 41 -20 27 -19 40 -20 142 -14 107 6 115 6 165 -19 30 -15 72 -42 95
-62 23 -19 47 -35 55 -35 8 0 29 16 48 35 19 19 40 35 47 35 7 0 13 4 13 9 0
9 73 36 120 44 18 3 14 5 -12 6 -20 0 -50 -4 -65 -11 -42 -18 -133 -80 -133
-89 0 -18 -28 -8 -65 21 -20 16 -62 42 -92 56 -52 26 -59 27 -165 21 -98 -6
-115 -5 -142 12 -17 11 -50 24 -74 30 -27 8 -64 31 -104 67 -33 30 -63 52 -66
50 -2 -3 8 -16 24 -30 94 -80 89 -71 68 -100 -11 -14 -22 -26 -25 -26 -14 0
-154 101 -154 113 -1 6 -7 11 -15 9 -8 -2 -24 2 -36 9 -15 7 -36 9 -61 4 -21
-5 -42 -8 -46 -7 -4 1 -3 -6 2 -16 6 -10 7 -29 4 -41 -14 -53 68 -171 167
-243 59 -42 181 -86 312 -112 158 -32 175 -40 188 -85 16 -57 13 -83 -7 -77
-10 2 -34 8 -53 11 -240 46 -500 188 -690 377 -53 52 -160 182 -160 193 0 5
-6 16 -14 24 -18 20 -108 194 -124 239 -9 27 -16 32 -44 32 -18 0 -38 4 -44 8
-11 7 -49 83 -79 160 -10 23 -20 41 -24 40 -3 -1 -86 -4 -183 -5z m1145 -628
c1 -5 -6 -11 -15 -13 -11 -2 -18 3 -18 13 0 17 30 18 33 0z m1107 0 c0 -8 -7
-15 -15 -15 -8 0 -15 7 -15 15 0 8 7 15 15 15 8 0 15 -7 15 -15z m670 -25 c25
-25 25 -41 0 -71 -12 -13 -47 -54 -78 -91 -56 -66 -88 -89 -101 -72 -3 5 -28
27 -56 49 -58 46 -65 54 -65 78 0 25 13 21 69 -23 28 -22 53 -40 56 -40 2 0
17 12 33 27 l29 26 -19 38 c-10 21 -22 41 -28 44 -21 13 -8 33 28 43 63 17
110 14 132 -8z m-2442 -20 c4 -35 -31 -70 -69 -70 -28 0 -79 37 -79 57 1 29
32 42 100 40 40 -2 45 -5 48 -27z m100 -9 c10 -6 2 -19 -32 -51 -25 -24 -46
-48 -46 -55 0 -6 20 -31 45 -55 40 -39 45 -42 45 -22 0 12 -4 22 -10 22 -5 0
-10 11 -10 24 0 28 53 72 73 62 60 -30 92 -54 92 -66 0 -16 -46 -20 -77 -6
-16 7 -18 2 -18 -38 0 -34 -6 -50 -22 -66 -12 -11 -27 -20 -33 -20 -20 0 -155
136 -155 157 0 22 100 123 122 123 7 0 19 -4 26 -9z m2024 -154 c4 -6 3 -14
-1 -17 -4 -3 -10 -13 -14 -22 -8 -22 -17 -22 -42 -5 -13 11 -16 21 -11 41 6
24 10 27 34 21 15 -4 30 -12 34 -18z m66 -16 c21 -11 44 -31 52 -46 13 -25 12
-27 -31 -65 -24 -22 -47 -39 -51 -40 -5 0 -8 -14 -8 -31 0 -71 -107 -120 -144
-67 -17 24 -22 88 -8 88 5 0 14 -11 20 -25 14 -30 41 -32 73 -6 l24 20 -52 53
c-54 56 -78 108 -50 108 9 0 35 -20 58 -45 23 -25 46 -45 50 -45 4 0 20 11 35
24 27 23 27 24 7 30 -21 7 -33 31 -26 54 6 16 7 15 51 -7z m-1937 -93 c1 -7 0
-21 -1 -31 -3 -35 20 -49 67 -42 43 6 53 -1 31 -23 -18 -18 -4 -24 26 -11 32
15 45 5 28 -22 -12 -19 -12 -19 12 -4 23 16 46 14 46 -4 0 -13 -62 -71 -75
-71 -8 0 -20 6 -27 13 -7 7 -35 26 -63 42 -27 16 -61 37 -74 47 -17 13 -28 15
-35 8 -12 -12 -66 -13 -81 -2 -17 12 -47 73 -40 80 3 3 14 1 23 -6 57 -40 105
-41 110 0 3 23 13 32 45 37 4 0 8 -5 8 -11z m210 -15 c2 -24 7 -50 10 -63 4
-16 -39 -28 -50 -13 -3 4 -15 13 -26 19 -28 16 -25 47 5 55 35 10 60 10 61 2z
m1465 -128 c19 -45 18 -64 -3 -72 -10 -3 -55 -23 -101 -44 -46 -22 -89 -39
-96 -39 -7 0 -26 -7 -43 -15 -17 -8 -50 -19 -74 -24 -24 -5 -69 -17 -99 -25
-30 -9 -97 -19 -148 -22 l-93 -6 3 38 c3 36 28 62 28 29 0 -12 5 -15 16 -11 9
3 24 6 34 6 16 0 17 4 8 34 -12 38 -6 66 14 66 13 0 38 -44 38 -66 0 -23 21
-26 81 -14 45 10 59 17 59 31 0 28 11 49 26 49 8 0 14 -10 14 -25 0 -18 5 -25
18 -25 14 0 19 8 20 31 1 40 18 59 52 59 39 0 60 -9 60 -26 0 -30 28 -12 45
29 16 38 18 40 24 19 9 -33 25 -32 31 2 6 36 30 47 31 14 1 -20 2 -20 6 -3 12
57 28 60 49 10z m-1381 -11 c9 -9 14 -23 11 -31 -3 -8 -6 -21 -6 -28 0 -26
-70 -85 -101 -85 -46 0 -99 38 -99 70 0 11 2 12 8 3 11 -17 102 -30 102 -15 0
6 -4 13 -9 16 -17 11 2 48 33 67 38 23 40 23 61 3z m634 -134 c1 -51 -4 -100
-10 -111 -19 -36 -34 -4 -36 77 -1 42 -4 78 -7 82 -12 11 -5 41 11 51 31 17
40 -5 42 -99z m-446 74 c11 -4 14 -15 10 -39 -5 -30 -3 -33 28 -43 81 -25 105
-24 123 3 13 19 25 25 54 25 44 0 62 -14 62 -47 0 -19 5 -23 31 -23 28 0 30 2
18 16 -10 12 -10 20 -1 34 9 15 7 21 -14 35 -20 13 -23 19 -13 31 15 18 43 18
59 -1 9 -11 10 -18 1 -29 -9 -10 -8 -15 3 -19 20 -8 30 -66 16 -101 -10 -29
-11 -29 -78 -22 -142 13 -169 17 -229 32 -34 9 -71 13 -81 10 -13 -4 -30 5
-55 29 -32 31 -38 34 -43 18 -22 -75 -61 -95 -55 -28 4 48 23 89 53 109 22 16
83 21 111 10z m885 -143 c21 -13 10 -46 -15 -46 -12 0 -25 -3 -29 -7 -19 -20
-58 1 -48 25 3 9 17 17 29 17 13 0 27 5 30 10 7 12 16 12 33 1z"/>
<path d="M3210 989 c0 -5 5 -7 10 -4 6 3 10 8 10 11 0 2 -4 4 -10 4 -5 0 -10
-5 -10 -11z"/>
<path d="M785 1030 c-3 -5 -1 -10 4 -10 6 0 11 5 11 10 0 6 -2 10 -4 10 -3 0
-8 -4 -11 -10z"/>
<path d="M2892 1649 c-6 -34 -10 -65 -8 -67 6 -5 28 107 24 120 -2 6 -9 -18
-16 -53z"/>
<path d="M1152 1685 c0 -11 4 -31 8 -45 6 -20 8 -21 8 -5 0 11 -4 31 -8 45 -6
20 -8 21 -8 5z"/>
<path d="M2971 1624 c1 -21 5 -50 9 -64 5 -16 6 -2 3 35 -7 69 -13 86 -12 29z"/>
<path d="M1130 1597 c0 -9 5 -17 10 -17 6 0 11 -10 11 -22 1 -17 3 -18 6 -6 2
10 -3 28 -11 40 -13 18 -16 19 -16 5z"/>
<path d="M1171 1594 c0 -11 3 -14 6 -6 3 7 2 16 -1 19 -3 4 -6 -2 -5 -13z"/>
<path d="M870 1597 c0 -4 9 -16 20 -27 11 -11 20 -16 20 -12 0 5 -9 17 -20 27
-11 10 -20 15 -20 12z"/>
<path d="M2920 1590 c0 -5 5 -10 10 -10 6 0 10 5 10 10 0 6 -4 10 -10 10 -5 0
-10 -4 -10 -10z"/>
<path d="M1071 1564 c0 -11 3 -14 6 -6 3 7 2 16 -1 19 -3 4 -6 -2 -5 -13z"/>
<path d="M3023 1550 c0 -21 -7 -38 -19 -47 -18 -14 -18 -15 6 -8 40 12 50 37
27 69 -12 17 -14 16 -14 -14z"/>
<path d="M3149 1563 c-13 -16 -12 -17 4 -4 9 7 17 15 17 17 0 8 -8 3 -21 -13z"/>
<path d="M1180 1552 c0 -39 81 -194 95 -181 2 3 -18 49 -45 104 -31 63 -49 91
-50 77z"/>
<path d="M2819 1453 c-34 -72 -47 -106 -33 -90 19 23 23 24 27 9 3 -9 5 -3 6
15 0 17 4 33 9 35 12 5 42 65 42 85 0 15 2 16 10 3 7 -11 8 -5 4 20 -4 19 -7
36 -8 36 -1 1 -26 -50 -57 -113z"/>
<path d="M1000 1545 c0 -9 5 -13 10 -10 6 3 10 -3 10 -14 0 -23 -19 -28 -38
-9 -8 8 -12 8 -12 1 0 -16 28 -24 56 -17 31 8 31 27 -1 48 -23 15 -25 15 -25
1z"/>
<path d="M930 1540 c0 -6 7 -10 15 -10 8 0 15 2 15 4 0 2 -7 6 -15 10 -8 3
-15 1 -15 -4z"/>
<path d="M3180 1510 c-8 -14 -8 -26 -2 -32 6 -6 12 0 16 17 9 35 1 43 -14 15z"/>
<path d="M867 1500 c8 -29 25 -37 21 -9 -1 12 -8 24 -15 26 -7 3 -9 -3 -6 -17z"/>
<path d="M3039 1483 c-13 -17 -13 -17 6 -3 11 8 22 16 24 17 2 2 0 3 -6 3 -6
0 -17 -8 -24 -17z"/>
<path d="M1051 1463 c0 -5 4 -17 9 -28 8 -18 9 -17 9 8 1 15 -3 27 -9 27 -5 0
-10 -3 -9 -7z"/>
<path d="M2996 1461 c-4 -5 -2 -12 3 -15 5 -4 12 -2 15 3 4 5 2 12 -3 15 -5 4
-12 2 -15 -3z"/>
<path d="M960 1426 c0 -2 7 -7 16 -10 8 -3 12 -2 9 4 -6 10 -25 14 -25 6z"/>
<path d="M1040 1371 c0 -5 7 -11 14 -14 10 -4 13 -1 9 9 -6 15 -23 19 -23 5z"/>
<path d="M1290 1354 c0 -18 76 -111 84 -103 3 3 -10 20 -28 39 -18 19 -38 44
-44 55 -6 11 -12 15 -12 9z"/>
<path d="M2970 1340 c-9 -6 -10 -10 -3 -10 6 0 15 5 18 10 8 12 4 12 -15 0z"/>
<path d="M2867 1321 c-4 -17 -3 -21 5 -13 5 5 8 16 6 23 -3 8 -7 3 -11 -10z"/>
<path d="M2740 1322 c0 -5 -14 -23 -31 -40 -18 -18 -29 -35 -25 -39 3 -4 13 2
21 13 45 57 55 74 46 74 -6 0 -11 -4 -11 -8z"/>
<path d="M1186 1305 c4 -8 8 -15 10 -15 2 0 4 7 4 15 0 8 -4 15 -10 15 -5 0
-7 -7 -4 -15z"/>
<path d="M1140 1281 c0 -6 4 -13 10 -16 6 -3 7 1 4 9 -7 18 -14 21 -14 7z"/>
<path d="M2895 1259 c-4 -6 -5 -12 -2 -15 2 -3 7 2 10 11 7 17 1 20 -8 4z"/>
<path d="M1057 1244 c3 -7 9 -14 14 -14 14 0 10 17 -5 23 -10 4 -13 1 -9 -9z"/>
<path d="M3000 1249 c0 -5 5 -7 10 -4 6 3 10 8 10 11 0 2 -4 4 -10 4 -5 0 -10
-5 -10 -11z"/>
<path d="M1170 1240 c0 -5 5 -10 11 -10 5 0 7 5 4 10 -3 6 -8 10 -11 10 -2 0
-4 -4 -4 -10z"/>
<path d="M1090 1226 c0 -2 7 -7 16 -10 8 -3 12 -2 9 4 -6 10 -25 14 -25 6z"/>
<path d="M2820 1222 c0 -5 7 -13 16 -16 10 -4 14 -1 12 6 -5 15 -28 23 -28 10z"/>
<path d="M2778 1173 c7 -3 16 -2 19 1 4 3 -2 6 -13 5 -11 0 -14 -3 -6 -6z"/>
<path d="M2215 950 c-3 -5 3 -10 15 -10 12 0 18 5 15 10 -3 6 -10 10 -15 10
-5 0 -12 -4 -15 -10z"/>
<path d="M2120 906 c0 -19 5 -38 10 -41 6 -4 10 10 10 34 0 23 -4 41 -10 41
-5 0 -10 -15 -10 -34z"/>
<path d="M2440 921 c0 -11 -6 -22 -12 -24 -10 -4 -9 -8 2 -16 13 -9 13 -11 -1
-11 -9 0 -19 9 -22 20 -7 27 -29 25 -25 -2 2 -13 -2 -23 -9 -23 -7 0 -14 -4
-15 -10 -2 -6 28 -11 70 -13 79 -3 92 8 48 41 -16 12 -22 25 -19 38 3 10 0 19
-6 19 -6 0 -11 -9 -11 -19z"/>
<path d="M1860 920 c0 -5 4 -10 9 -10 6 0 13 5 16 10 3 6 -1 10 -9 10 -9 0
-16 -4 -16 -10z"/>
<path d="M2212 898 c-20 -20 -13 -33 26 -45 51 -15 102 -6 102 18 0 12 -7 19
-20 19 -11 0 -20 -4 -20 -10 0 -19 -42 -10 -47 10 -6 23 -23 26 -41 8z"/>
<path d="M1882 715 l3 -50 80 0 80 0 -3 40 c-2 22 -8 45 -14 50 -7 7 -8 -2 -4
-27 4 -21 2 -39 -4 -43 -5 -3 -10 -1 -10 5 0 8 -9 10 -24 6 -14 -3 -28 -1 -31
5 -5 6 -12 4 -20 -8 -11 -14 -15 -15 -28 -4 -9 7 -13 19 -11 26 3 8 1 22 -5
32 -9 14 -11 8 -9 -32z"/>
<path d="M2069 755 c-4 -5 -4 -28 0 -50 l6 -40 55 0 c43 0 55 4 58 16 3 14 -6
17 -50 15 l-53 -1 -5 35 c-3 19 -8 31 -11 25z"/>
<path d="M1930 738 c0 -4 16 -8 35 -8 19 0 35 4 35 9 0 5 -16 9 -35 8 -19 -1
-35 -5 -35 -9z"/>
<path d="M2240 690 c0 -5 5 -10 10 -10 6 0 10 5 10 10 0 6 -4 10 -10 10 -5 0
-10 -4 -10 -10z"/>
</g>
</svg>
