    <?xml version="1.0" encoding="utf-8"?>
                <!-- Svg Vector Icons : http://www.onlinewebfonts.com/icon -->
                <!DOCTYPE svg PUBLIC "-//W3C//DTD SVG 1.1//EN" "http://www.w3.org/Graphics/SVG/1.1/DTD/svg11.dtd">
                <svg style='fill: var(--gray);
                height: 44px;' version="1.1" xmlns="http://www.w3.org/2000/svg" xmlns:xlink="http://www.w3.org/1999/xlink" x="0px" y="0px" viewBox="0 0 1000 1000" enable-background="new 0 0 1000 1000" xml:space="preserve">
                <metadata> Svg Vector Icons : http://www.onlinewebfonts.com/icon </metadata>
                <g><g transform="translate(0.000000,502.000000) scale(0.100000,-0.100000)"><path d="M6743.8,4906c-121.2-50.8-140.7-146.6-109.4-514c56.7-652.7,189.6-1098.3,396.7-1334.8c43-48.9,72.3-95.8,64.5-107.5c-5.9-9.8-54.7-19.5-109.4-19.5c-154.4,0-684-87.9-930.3-154.4c-93.8-25.4-181.7-117.3-181.7-189.6c0-87.9,52.8-154.4,267.7-332.2c281.4-234.5,412.4-332.2,611.7-453.4l164.2-101.6l-183.7,13.7c-101.6,9.8-275.6,15.6-385,15.6c-193.5,0-203.2-2-254.1-54.7c-91.9-91.9-74.3-175.9,84-410.4c74.3-109.4,183.7-259.9,242.3-336.1c60.6-74.3,115.3-146.6,123.1-160.3c7.8-13.7-52.8,7.8-136.8,48.9c-193.5,89.9-295.1,95.8-371.3,17.6c-48.9-46.9-54.7-68.4-52.8-166.1c2-121.2,130.9-637.1,211.1-850.1c27.3-72.3,44.9-130.9,39.1-130.9c-5.9,0-62.5,43-125.1,97.7c-64.5,52.8-158.3,119.2-207.2,148.5c-115.3,68.4-209.1,50.8-275.6-48.9c-43-62.5-44.9-84-44.9-420.2c0-195.4,9.8-430,21.5-525.7c11.7-93.8,17.6-179.8,13.7-191.5c-3.9-9.8-72.3,70.4-152.4,181.8c-256,353.7-316.6,398.7-457.3,340c-82.1-33.2-113.4-103.6-197.4-428c-93.8-359.6-146.6-687.9-146.6-908.8v-189.6l-64.5,117.3c-158.3,289.2-301,527.7-355.7,590.2c-48.9,58.6-74.3,70.4-142.7,72.3c-129,2-179.8-62.5-304.9-398.7c-244.3-646.9-312.7-1055.3-238.4-1409.1c52.8-246.3,162.2-408.5,332.2-498.3l107.5-54.7l-91.9-37.1c-172-64.5-709.4-228.7-977.2-297.1c-816.9-205.2-1579.1-304.9-2335.4-304.9H167.5l-33.2-50.8c-78.2-119.2-19.5-248.2,144.6-322.5c93.8-41,207.2-39.1,797.4,15.6c1164.8,109.5,2278.7,408.5,3011.6,811c80.1,45,150.5,78.2,154.4,72.3c3.9-3.9-2-46.9-11.7-93.8c-60.6-263.8,99.7-521.8,414.3-668.4c179.8-84,263.8-105.5,535.5-132.9c277.5-27.4,940,17.6,1196,82.1c177.8,44.9,215,199.3,86,359.6c-99.7,123.1-492.5,480.8-695.7,633.2c-261.9,197.4-621.5,351.8-813,351.8h-66.4v263.8c0,144.6,5.9,263.8,11.7,263.8c5.9,0,31.3-21.5,56.7-48.9c25.4-27.4,93.8-66.5,154.4-89.9c91.9-35.2,134.9-39.1,275.6-29.3c91.9,5.9,189.6,15.6,216.9,23.4l50.8,11.7l-17.6-105.5c-48.9-291.2,70.3-545.2,312.7-668.4c345.9-173.9,822.8-150.5,1561.5,78.2c416.3,129,494.4,177.9,494.4,306.8c0,99.7-58.6,160.3-320.5,334.2c-336.1,222.8-750.4,428-988.9,490.5c-197.4,50.8-459.3,66.4-582.4,31.3l-62.5-19.5v162.2c0,89.9-5.9,191.5-11.7,224.7l-13.7,62.5l74.3-48.9c160.3-109.4,402.6-119.2,603.9-25.4c62.5,29.3,119.2,50.8,123.1,46.9c3.9-3.9,19.5-58.6,35.2-119.2c43-160.3,93.8-250.1,197.4-342c113.4-99.7,238.4-138.8,437.8-138.8c363.5,0,787.6,199.3,1375.8,650.8c261.9,201.3,304.9,271.7,236.5,402.6c-37.1,72.3-105.5,103.6-412.4,185.7c-660.6,179.8-1143.3,197.4-1479.4,52.8l-86-37.1l-48.9,138.8c-27.4,78.2-54.7,154.4-60.6,170c-11.7,23.5,7.8,29.3,117.3,31.3c160.3,0,263.8,43,418.2,168.1l107.5,87.9l45-84.1c154.4-289.2,426-414.3,717.2-330.3c381.1,109.4,701.6,412.4,1139.4,1084.6c179.8,273.6,195.4,322.5,144.6,426c-50.8,103.6-113.3,119.2-426,97.7c-660.6-43-1127.6-175.9-1409.1-402.6l-117.3-95.8l-43,72.3c-21.5,39.1-70.4,111.4-107.5,160.3l-68.4,87.9l115.3,13.7c64.5,5.9,152.5,29.3,199.3,52.8c103.6,52.8,244.3,199.3,304.9,322.5c27.3,52.8,50.8,99.7,54.7,103.6c1.9,3.9,48.9-33.2,105.5-82.1C8475.3,383.7,8594.5,327,8745,317.2c203.2-15.6,322.5,39.1,521.8,236.5c140.7,138.8,172,185.7,267.7,383c60.6,123.1,130.9,295.1,160.3,381.1c64.5,195.4,205.2,762.2,205.2,826.7c0,107.5-97.7,199.3-211.1,199.3c-64.5,0-549.2-215-772-344c-344-197.4-633.2-461.2-744.6-678.1l-54.7-111.4l-103.6,93.8c-56.7,50.8-162.2,125.1-236.5,166.1c-74.3,39.1-121.2,72.3-105.5,72.3c195.4,3.9,428,205.2,488.6,420.2c27.4,97.7,48.9,121.2,84,91.9c62.5-48.9,258-101.6,381.1-101.6c222.8,0,406.5,123.1,545.3,361.5c150.5,258,199.3,502.3,215,1055.3c17.6,695.7-17.6,805.2-261.9,793.5c-58.6-2-392.8-273.6-654.7-527.7c-205.2-197.4-211.1-201.3-211.1-142.7c0,76.2-74.3,283.4-144.6,402.6c-152.4,259.9-736.8,750.5-1160.8,973.3C6843.4,4925.5,6808.3,4931.4,6743.8,4906z M7330.1,4130.1c308.8-238.4,498.3-476.9,529.6-666.4c13.7-91.8-31.3-156.3-160.2-232.6c-97.7-56.7-199.3-64.5-261.9-21.5c-84,58.6-191.5,228.7-252.1,396.7c-58.6,162.2-138.8,551.1-138.8,676.2v56.7l64.5-43C7144.4,4270.8,7244.1,4196.5,7330.1,4130.1z M9001,3502.8c0-179.8-46.9-615.6-78.2-738.7c-56.7-224.7-193.5-420.2-291.2-420.2c-68.4,0-218.9,64.5-275.6,117.3c-99.7,93.8-76.2,269.7,72.3,515.9c74.3,121.2,506.2,578.5,549.2,578.5C8991.2,3555.5,9001,3532.1,9001,3502.8z M7932,2848.1c-11.7-58.6-35.2-68.4-84-33.2c-19.5,13.7-21.5,23.4-7.8,29.3c11.7,5.9,39.1,21.5,58.6,37.1C7943.7,2914.5,7943.7,2912.6,7932,2848.1z M7599.8,2482.6c62.5-25.4,136.8-64.5,166.1-89.9c44.9-39.1,52.8-58.6,48.9-144.6c-1.9-121.2-68.4-261.9-134.8-291.2c-121.2-56.7-338.1-11.7-603.9,123.1c-189.6,93.8-564.8,361.5-541.3,385c31.3,31.3,437.8,70.4,687.9,66.4C7443.4,2527.5,7504,2519.7,7599.8,2482.6z M9401.7,1734.1c-29.3-134.8-152.4-478.8-226.7-629.3c-84.1-172-222.8-332.2-324.4-375.2c-76.2-33.2-150.5-9.8-258,82.1c-89.9,74.3-123.1,158.3-99.7,246.2c39.1,142.7,234.5,349.8,467.1,502.3c121.2,78.2,412.4,234.5,437.8,236.5C9407.5,1796.6,9407.5,1767.3,9401.7,1734.1z M7115.1,1257.2c338.1-66.4,500.3-130.9,637.1-256c45-41,87.9-91.8,97.7-117.3c23.5-62.5-31.3-207.1-109.4-289.2c-54.7-58.6-76.2-68.4-150.5-68.4c-136.8,0-344,113.3-529.6,291.2c-138.8,132.9-424.1,463.2-424.1,490.5C6636.3,1325.6,6937.3,1292.4,7115.1,1257.2z M6646.1,246.9c365.5-197.4,600-385,709.4-566.7c103.6-172,86-267.7-78.2-385C7124.9-816.3,6990-767.4,6818-540.7c-107.5,144.6-197.4,334.2-289.2,617.6c-72.3,222.8-78.2,254.1-52.8,254.1C6483.9,330.9,6560.1,291.8,6646.1,246.9z M9139.8-155.7c-52.7-95.7-275.5-373.3-410.4-512c-107.5-109.4-185.7-170-275.6-211.1c-168.1-80.1-259.9-80.1-332.2-1.9c-74.3,78.2-117.3,177.8-117.3,265.8c0,60.6,13.7,86,86,154.4c152.4,148.5,435.8,252.1,834.5,310.7C9176.9-112.7,9161.3-112.7,9139.8-155.7z M6157.5-783c359.6-316.6,576.5-637.1,576.5-856c0-84.1-80.1-164.2-209.1-207.2c-129-45-152.4-41-240.4,39.1c-87.9,80.1-179.8,256-222.8,424.1c-50.8,199.3-107.5,736.8-76.2,736.8C5995.3-646.2,6071.5-706.8,6157.5-783z M5385.5-1676.2c168.1-281.4,252.1-494.4,265.8-672.3c5.9-99.7,2-160.2-15.6-191.5c-41-78.2-140.7-125.1-273.6-127c-107.5-2-121.2,2-172,60.6c-107.5,121.2-154.4,400.6-119.2,709.4c23.5,195.4,76.2,486.6,95.8,515.9C5182.3-1355.7,5248.7-1445.6,5385.5-1676.2z M8236.9-1816.9c293.1-56.7,293.1-54.7,68.4-203.2c-328.3-216.9-553.1-316.6-756.3-338.1c-203.3-19.5-267.7,29.3-308.8,232.6c-17.6,86-17.6,123.1,1.9,170C7316.4-1773.9,7720.9-1717.2,8236.9-1816.9z M4283.3-2414.9c191.5-402.6,258-686,205.2-885.3c-29.3-103.6-80.1-136.8-228.7-152.4c-144.6-15.6-222.8,19.6-269.7,119.2c-101.6,213-76.2,543.3,80.1,1043.6C4130.8-2094.4,4126.9-2092.4,4283.3-2414.9z M6675.4-3003.1c138.8-46.9,551.1-250.2,633.2-310.7c21.5-15.6,33.2-33.2,27.4-39.1s-111.4-37.1-236.5-68.4c-512-129-846.2-125.1-1012.4,13.7c-60.6,50.8-60.6,54.7-50.8,187.6c9.8,156.3,50.8,224.7,152.4,261.9C6280.6-2923,6495.6-2944.5,6675.4-3003.1z M5039.6-3841.6c60.6-15.6,164.2-54.7,226.7-87.9c134.9-66.5,467.1-312.7,574.6-426l74.3-76.2l-132.9-11.7c-510.1-48.9-942,19.5-1104.2,175.9c-130.9,125.1,5.9,455.4,187.6,455.4C4898.9-3812.2,4979-3825.9,5039.6-3841.6z"/></g></g>
                </svg>