<?xml version="1.0" encoding="utf-8"?>
<!-- Svg Vector Icons : http://www.onlinewebfonts.com/icon -->
<!DOCTYPE svg PUBLIC "-//W3C//DTD SVG 1.1//EN" "http://www.w3.org/Graphics/SVG/1.1/DTD/svg11.dtd">
<svg version="1.1" xmlns="http://www.w3.org/2000/svg" xmlns:xlink="http://www.w3.org/1999/xlink" x="0px" y="0px" viewBox="0 0 1000 1000" enable-background="new 0 0 1000 1000" xml:space="preserve">
<metadata> Svg Vector Icons : http://www.onlinewebfonts.com/icon </metadata>
<g><g><g><path d="M213.3,278h-2.6c-3.8,0-7.1-1.2-10-3.4c-2.9-2.3-4.4-6.5-4.4-12.9v-70.3l74.8,92.1h2.8v-92.1c0-5.2,0.4-8.9,1.3-11.1c0.9-2.1,2.2-3.7,3.8-4.7c1.6-0.9,4.8-1.7,9.4-2.3v-3h-36.6v3c6.1-0.1,10.5,1.4,13.1,4.6c1.9,2.3,2.8,6.8,2.8,13.4V239l-54.6-68.6H174v3c3.4,0.1,5.9,0.6,7.8,1.6c1.8,0.9,3.9,2.8,6.2,5.8l2.4,2.9v78.1c0,5.9-1.2,10-3.6,12.5c-2.4,2.5-6.7,3.7-12.7,3.8v3h39.2L213.3,278C213.2,278,213.3,278,213.3,278z"/><path d="M391.3,245.8h-3c-2.7,9.8-7.2,17.1-13.4,21.9c-6.2,4.8-14.5,7.2-24.9,7.2h-6.6c-3.2,0-5.4-0.5-6.9-1.3c-1.4-0.9-2.4-2-2.9-3.4c-0.5-1.4-0.8-5.1-0.8-11.2v-31.2c5.3,0,9.3,0.7,12.1,2.1c2.7,1.4,5.2,4.1,7.3,8.1c2.1,4,3.5,9.2,4.1,15.5h3.1v-57.9h-3.1c-0.9,8.6-2.9,15.1-6,19.5c-3.2,4.4-8.2,6.6-15.3,6.6h-2.2v-45.1h11.4c8.4,0,14.1,0.5,17.2,1.5c5.2,1.6,9.2,4.2,12.1,7.7c2.9,3.5,5.1,9.2,6.7,17.2h3.1v-32.7h-92.6v3h3.7c3.6,0,6.4,0.7,8.5,2.3c1.5,1,2.5,2.5,3,4.4c0.3,1.1,0.4,4.2,0.4,9.2v72.8c0,5.6-0.3,9-0.9,10.3c-0.8,1.9-1.9,3.2-3.3,3.9c-2,1.2-4.6,1.7-7.8,1.7h-3.7v3h95.7L391.3,245.8z"/><path d="M410.5,193.2l36.4,90.4h3l30.2-71.3l27.4,71.3h3.2l34.7-91.4c3.1-7.8,4.8-12,5.1-12.6c1.1-2,2.3-3.5,3.8-4.5c1.4-1,3.2-1.6,5.2-1.7v-3h-28.7v3c4.3,0.1,7.2,0.8,8.7,2.1c1.5,1.3,2.3,3,2.3,5.2c0,1.6-0.2,3.2-0.6,5c-0.5,1.8-1.6,5.1-3.5,10l-18,47.5l-20.2-52.4c-2.4-6.4-3.7-10.2-3.7-11.5c0-1.1,0.3-2.2,1-3.1c0.6-0.9,1.6-1.5,2.7-1.9c1.6-0.5,4.3-0.8,8.1-0.9v-3h-53.6v3c3.4,0,6,0.5,7.8,1.4c1.7,0.9,3.3,2.5,4.7,4.6c1.4,2.2,3.3,6.5,5.8,12.8l4.6,11.8l-17.4,41.9l-21.7-53.7c-2.7-6.7-4-11.1-4-13.1c0-1.6,0.6-2.9,1.9-3.9c1.3-1.1,3.8-1.6,7.7-1.7v-3.1h-48v3c3.5,0.3,6,1.4,7.4,3.3C404.2,178.6,406.8,184.1,410.5,193.2z"/><path d="M571.4,278.6c1.6-1.1,3.1-1.6,4.5-1.6c1.7,0,3.8,0.5,6.4,1.6c4.7,2,8.6,3.3,11.7,4c3.1,0.7,6.4,1.1,9.9,1.1c11.1,0,20.2-3.4,27.4-10c7.2-6.7,10.8-14.6,10.8-23.9c0-7.3-2.2-13.8-6.7-19.4c-4.5-5.7-13.3-11.7-26.2-18c-9.2-4.6-15.2-7.8-17.7-9.6c-3.5-2.5-6-5-7.6-7.6c-1.2-1.9-1.7-4.1-1.7-6.6c0-3.9,1.6-7.3,4.8-10.2c3.2-2.9,7.6-4.4,13.2-4.4c7.2,0,13.8,2.8,20,8.4c6.1,5.6,10.1,13.1,11.6,22.3h3.3l-0.9-36.9H632c-0.7,3.3-1.5,5.4-2.3,6.3c-0.8,0.9-1.9,1.3-3.4,1.3c-1.5,0-4-0.8-7.7-2.6c-3.7-1.8-6.8-3-9.4-3.6c-3.4-0.9-6.9-1.3-10.4-1.3c-9.9,0-18,3.1-24.5,9.3c-6.5,6.2-9.7,13.7-9.7,22.5c0,5.2,1.2,9.9,3.6,14.2c2.4,4.3,5.8,8.2,10.2,11.7c4.4,3.5,11.6,7.7,21.7,12.6c7.2,3.5,12.2,6.4,15,8.6c2.8,2.2,4.9,4.6,6.3,7c1.4,2.5,2.1,5,2.1,7.6c0,4.4-1.8,8.2-5.4,11.6c-3.6,3.3-8.5,4.9-14.5,4.9c-7.9,0-15.3-3.1-22.1-9.2c-6.8-6.2-11.4-15.2-13.8-26.9h-3v41.8h3C568.6,281.3,569.9,279.7,571.4,278.6z"/><rect x="82.8" y="311.6" width="650.7" height="25.7"/><rect x="217.6" y="382.3" width="174.6" height="25.7"/><rect x="217.6" y="452.9" width="174.6" height="25.7"/><rect x="83.7" y="523.5" width="308.6" height="25.7"/><path d="M146.3,486.5h-2.1v2.8H195v-2.8c-3.2-0.3-5.7-1.2-7.4-2.7c-2.3-2.1-5.3-7.2-8.9-15.4l-37.8-85.9h-1.5L101.9,466c-3.6,8-6.6,13.3-9,15.8c-2.4,2.6-5.5,4.1-9.3,4.7v2.8h34.9v-2.8c-5.5-0.4-8.9-1-10.3-1.9c-2.4-1.4-3.6-3.6-3.6-6.5c0-2.2,0.7-5,2.2-8.4l4.4-10.2h37l5.6,13.1c1.5,3.4,2.2,5.3,2.3,5.8c0.3,0.9,0.5,1.9,0.5,2.8c0,1.6-0.6,2.7-1.7,3.6C153.3,485.9,150.4,486.5,146.3,486.5z M114,453.8l16.1-36.1l15.6,36.1H114z"/><path d="M806.2,394.2V101.9H10v539.4h465.2c0.3,141.7,115.6,256.8,257.4,256.8c23.9,0,46.9-3.5,68.8-9.6l0.5,0.3c0.2-0.2,0.3-0.4,0.4-0.5C910.4,857.8,990,758.4,990,640.7C990,524.4,912.4,426,806.2,394.2z M964.3,628.2h-92.8c-0.9-27.6-4-54.9-9.6-81.2H945C956.2,572.1,962.8,599.5,964.3,628.2z M932,522h-76.2c-9.3-34.3-22.5-67-39.5-97.8C864.9,443,905.5,477.8,932,522z M502,615.6c2.5-23.3,8.3-45.6,17.2-66.4c0.3-0.7,0.5-1.5,0.9-2.2h81.7c-0.2,0.7-0.2,1.5-0.3,2.2c-4.1,21.7-6.4,43.9-7.4,66.4c-0.2,4.2-0.7,8.4-0.8,12.6h-92.5C501,624,501.6,619.8,502,615.6z M597.3,452.9c14.5-10.5,29.9-20,46.7-27c-4.6,8.7-8.1,17.9-12.2,27c-3.8,8.5-7.6,16.9-10.8,25.7c-5.2,14.3-10,28.6-13.7,43.4h-74.3c9.6-15.9,21.4-30.2,34.4-43.4C576.7,469.2,586.6,460.6,597.3,452.9z M647.8,478.6c3.4-8.7,7.1-17.3,11.1-25.7c6.1-13,12.7-25.8,20.2-38.1c13.3-3.1,27-5.1,41-5.9v44v25.7V522h-86.9C637.2,507.2,642.2,492.8,647.8,478.6z M619.1,615.6c1-22.5,3.4-44.7,7.7-66.4c0.2-0.7,0.2-1.5,0.4-2.2h93v2.2v66.4v12.6H618.3C618.3,624,618.9,619.8,619.1,615.6z M745,615.6V547h35.5h25.7h30.2c5.9,26.3,9.1,53.5,10.1,81.2h-40.3H745L745,615.6L745,615.6z M846.8,653.2c-0.5,27.6-3.4,54.9-8.8,81.2h-93v-81.2C745,653.2,846.8,653.2,846.8,653.2z M830,522h-23.8h-25.7H745v-113c12.2,0.7,24,2,35.5,4.4c0,0,0.1,0,0.1,0c9.6,14.8,18,30.4,25.6,46.4C815.7,479.8,823.8,500.5,830,522z M35.7,127.6h744.9V388c-15.6-3-31.6-4.7-48-4.7v-1.1H424V408h199.3c-24.4,11.5-46.8,26.7-66.3,44.9H424v25.7h109.2c-11.3,13.9-21.2,28.9-29.5,45H424v25.7h68.2c-8,21-13.4,43.2-15.7,66.4H35.7V127.6z M500.8,653.2h92.8c0.9,27.6,3.9,54.9,9.6,81.2h-83.1C509,709.3,502.3,682,500.8,653.2z M533.1,759.5h76.2c9.3,34.3,22.5,67,39.5,97.8C600.1,838.4,559.5,803.7,533.1,759.5z M720.1,872.5c-12.2-0.7-24.1-2-35.7-4.5c-21.6-33.5-38.2-70-49.3-108.6h85V872.5z M720.1,734.5h-91.5c-5.9-26.3-9.1-53.5-10.1-81.2H720L720.1,734.5L720.1,734.5z M786.1,866.7c-13.3,3.1-27,5.1-41,5.9v-113h86.9C821.6,797.4,806.3,833.4,786.1,866.7z M821.1,855.5c15.8-30.3,28.1-62.6,36.6-96H932C906.4,802.3,867.6,836.2,821.1,855.5z M945,734.5h-81.7c5.2-26.5,8-53.6,8.5-81.2h92.5C962.8,682,956.2,709.3,945,734.5z"/></g></g><g></g><g></g><g></g><g></g><g></g><g></g><g></g><g></g><g></g><g></g><g></g><g></g><g></g><g></g><g></g></g>
</svg>