<?xml version="1.0" standalone="no"?>
<!DOCTYPE svg PUBLIC "-//W3C//DTD SVG 20010904//EN"
 "http://www.w3.org/TR/2001/REC-SVG-20010904/DTD/svg10.dtd">
<svg style='    height: 104px;
    width: 65px;
    color:white;' version="1.0" xmlns="http://www.w3.org/2000/svg"
 width="1291.000000pt" height="1302.000000pt" viewBox="0 0 1291.000000 1302.000000"
 preserveAspectRatio="xMidYMid meet">

<g transform="translate(0.000000,1302.000000) scale(0.100000,-0.100000)"
fill="#000000" stroke="none">
<path d="M3734 8876 c-114 -84 -274 -268 -329 -376 -118 -233 -118 -440 -1
-593 22 -29 33 -53 29 -60 -5 -7 -47 -64 -94 -127 -47 -63 -99 -134 -114 -158
-15 -23 -29 -41 -31 -39 -2 2 6 46 18 98 29 128 32 380 5 484 -19 75 -85 216
-104 222 -20 7 -171 -207 -228 -322 -133 -269 -142 -527 -26 -701 22 -33 60
-74 85 -93 25 -19 46 -41 46 -48 0 -8 -12 -37 -27 -66 -15 -29 -52 -115 -82
-193 l-56 -141 -1 151 c0 189 -30 331 -98 470 -41 84 -127 205 -151 213 -22 7
-124 -214 -154 -335 -58 -231 -57 -416 3 -576 52 -138 150 -236 280 -280 13
-4 17 -12 12 -29 -15 -60 -55 -311 -61 -384 -8 -89 -18 -99 -29 -31 -23 143
-108 364 -185 476 -82 121 -247 271 -270 246 -5 -5 -16 -38 -24 -74 -70 -294
-45 -600 67 -815 68 -132 220 -247 344 -262 27 -3 55 -8 60 -12 6 -3 13 -58
17 -121 6 -110 29 -336 41 -410 4 -26 -5 -13 -36 50 -94 192 -247 380 -392
483 -66 47 -168 98 -222 111 l-29 7 6 -148 c12 -302 106 -553 275 -734 125
-133 226 -182 376 -181 45 0 88 2 95 4 9 2 32 -50 71 -162 31 -91 74 -203 94
-249 20 -46 35 -85 34 -87 -2 -1 -27 26 -55 61 -53 65 -187 184 -284 254 -134
95 -345 171 -477 171 -33 0 -33 -1 -26 -32 15 -70 87 -264 128 -346 106 -210
272 -387 440 -468 160 -77 298 -80 457 -10 12 5 32 -19 86 -102 58 -88 139
-198 236 -320 5 -7 -44 21 -109 61 -189 118 -262 151 -423 193 -115 30 -297
42 -385 25 -33 -6 -61 -13 -63 -15 -6 -6 73 -142 125 -215 67 -95 245 -275
321 -325 172 -114 319 -168 461 -168 120 0 205 26 297 89 43 29 71 42 79 37 6
-5 47 -40 90 -78 44 -38 133 -109 199 -158 66 -50 123 -93 127 -97 4 -4 -56
15 -135 41 -201 67 -297 82 -502 82 -147 0 -181 -3 -250 -22 -88 -25 -195 -70
-195 -82 0 -14 176 -175 258 -237 81 -61 282 -167 376 -198 95 -31 191 -46
301 -46 180 0 283 38 390 144 33 34 68 73 77 87 l15 25 124 -61 c123 -61 345
-154 367 -154 7 0 12 -4 12 -9 0 -4 -24 -4 -52 1 -73 13 -344 12 -449 -1 -165
-21 -329 -76 -456 -153 -59 -35 -133 -95 -133 -107 0 -27 284 -163 446 -214
108 -34 326 -61 434 -54 296 20 509 163 584 391 7 21 3 22 191 -18 66 -14 168
-31 228 -38 59 -7 107 -15 107 -18 0 -4 -29 -12 -64 -18 -87 -16 -301 -86
-393 -127 -93 -43 -249 -146 -325 -214 -59 -54 -148 -164 -148 -185 0 -22 193
-67 366 -84 138 -13 185 -14 283 -4 136 14 290 51 378 92 229 106 377 295 385
489 l1 39 81 6 c45 4 106 9 136 12 95 9 291 44 392 69 66 17 105 22 120 16 72
-26 354 -75 533 -92 72 -6 132 -13 134 -15 2 -2 5 -23 8 -46 5 -54 30 -143 50
-183 32 -62 105 -145 170 -194 137 -103 243 -144 464 -182 102 -18 147 -20
254 -15 72 3 141 8 155 10 14 2 48 7 75 11 78 10 245 58 245 71 0 19 -96 139
-152 188 -77 69 -231 169 -323 211 -96 43 -341 121 -413 131 -56 7 -61 24 -7
24 42 0 306 44 407 69 l77 18 16 -48 c54 -162 199 -283 410 -341 151 -42 429
-26 615 34 152 49 430 185 430 210 0 19 -124 104 -218 149 -133 65 -294 106
-456 117 -135 9 -284 6 -363 -6 -29 -5 -53 -5 -53 -1 0 5 5 9 10 9 22 0 251
95 368 153 l122 61 17 -24 c71 -103 184 -184 299 -215 75 -20 256 -21 350 -1
174 37 380 136 529 255 79 63 225 200 225 211 0 11 -107 57 -195 82 -71 20
-100 23 -260 22 -210 -1 -304 -17 -509 -87 -70 -24 -123 -40 -119 -36 4 4 55
42 113 85 108 80 261 206 293 242 l19 21 59 -44 c204 -150 452 -130 756 61
131 82 357 341 437 501 l26 51 -51 11 c-72 16 -224 13 -319 -5 -182 -34 -347
-105 -535 -229 l-96 -63 34 42 c66 80 140 181 209 286 39 58 74 108 77 112 4
4 33 -3 66 -17 214 -86 479 7 672 238 100 119 141 180 189 282 42 90 105 261
119 322 6 32 6 33 -27 33 -97 0 -243 -42 -368 -106 -128 -65 -328 -233 -428
-358 -29 -36 -27 -31 23 90 30 71 74 189 97 261 32 100 47 132 57 128 32 -12
179 -5 231 11 86 26 125 50 206 126 160 152 267 383 303 651 14 102 14 267 1
267 -6 0 -38 -11 -72 -25 -211 -86 -399 -275 -545 -549 -41 -77 -53 -93 -49
-66 12 76 35 301 41 408 4 61 10 112 14 112 35 1 150 34 192 56 79 39 180 146
223 236 65 136 106 336 99 481 -10 185 -49 397 -73 397 -17 0 -128 -89 -176
-142 -103 -113 -174 -245 -227 -419 -19 -63 -38 -134 -42 -159 -13 -81 -21
-72 -33 40 -11 100 -45 313 -59 367 -4 18 1 25 23 33 170 65 274 210 309 430
19 119 -2 317 -52 474 -26 83 -121 286 -134 286 -12 0 -93 -101 -125 -155 -90
-151 -142 -386 -131 -588 3 -54 4 -97 2 -95 -2 2 -20 48 -40 103 -21 55 -59
145 -84 200 l-48 101 69 63 c113 104 155 224 145 409 -8 159 -67 329 -169 487
-48 75 -144 198 -158 203 -14 5 -61 -84 -94 -177 -29 -84 -30 -90 -29 -266 0
-142 5 -199 20 -270 12 -49 20 -91 18 -93 -1 -1 -15 17 -30 40 -15 24 -67 95
-114 158 -47 63 -90 120 -94 127 -5 8 7 33 33 66 108 144 110 339 5 561 -43
91 -103 173 -202 277 -72 75 -185 169 -203 169 -36 0 -63 -259 -40 -396 16
-102 80 -276 138 -379 4 -5 -34 27 -83 72 -50 45 -111 99 -137 120 -47 37 -48
39 -48 94 0 130 -155 341 -303 412 -154 74 -315 94 -475 58 -104 -23 -282
-101 -282 -124 0 -19 146 -158 245 -233 119 -91 182 -129 286 -172 145 -60
217 -76 351 -77 l118 -2 80 -67 c87 -74 103 -91 74 -82 -49 15 -155 23 -216
15 -133 -17 -254 -96 -338 -221 l-41 -62 48 -24 c64 -33 155 -64 283 -98 89
-23 126 -28 240 -28 144 -1 203 9 305 51 l60 25 37 -43 c50 -58 162 -212 151
-208 -4 2 -33 16 -63 31 -126 63 -289 60 -425 -7 -76 -38 -199 -140 -189 -157
11 -17 224 -153 299 -190 213 -106 425 -139 605 -93 21 5 27 1 37 -22 6 -15
34 -78 62 -140 28 -62 51 -115 51 -119 0 -3 -18 10 -40 29 -123 112 -275 155
-430 123 -76 -16 -196 -68 -239 -102 l-23 -20 128 -130 c229 -231 431 -340
670 -360 l81 -7 22 -114 c12 -62 25 -137 28 -166 l6 -52 -30 41 c-94 126 -266
214 -418 214 -67 0 -173 -20 -228 -44 l-38 -15 35 -69 c56 -110 174 -280 254
-364 127 -133 246 -213 378 -254 l81 -25 -3 -62 c-7 -153 -15 -265 -21 -295
l-6 -34 -27 64 c-73 175 -205 285 -386 323 -76 16 -211 20 -233 6 -28 -18 70
-334 156 -504 70 -139 194 -281 314 -359 l77 -50 -14 -49 c-14 -46 -84 -252
-100 -292 -10 -28 -24 -1 -24 49 0 160 -137 359 -302 437 -76 37 -177 67 -223
67 l-28 0 6 -192 c4 -134 12 -222 25 -289 44 -209 125 -386 228 -498 76 -82
80 -59 -39 -233 -97 -144 -107 -154 -96 -96 22 114 3 258 -48 366 -37 80 -174
214 -271 265 -40 22 -79 37 -86 34 -18 -7 -71 -205 -91 -342 -43 -282 -14
-527 85 -712 l39 -72 -67 -58 c-90 -79 -195 -163 -200 -159 -2 2 5 21 16 43
56 110 75 247 51 365 -25 122 -124 279 -233 369 l-49 40 -27 -43 c-114 -183
-214 -423 -250 -597 -31 -153 -24 -385 14 -481 6 -15 -101 -75 -263 -147 l-53
-24 46 53 c56 63 110 168 132 258 42 165 -16 399 -133 539 l-28 33 -50 -45
c-86 -77 -247 -272 -317 -385 -117 -185 -173 -347 -185 -535 l-6 -97 -36 -10
c-56 -14 -280 -58 -336 -65 l-50 -6 60 33 c33 18 92 65 130 104 176 178 220
401 133 677 -24 76 -22 75 -109 31 -174 -87 -460 -318 -567 -456 -85 -111
-155 -247 -183 -357 -7 -29 -19 -55 -25 -58 -33 -13 -524 52 -507 67 4 4 31
15 58 25 155 56 428 209 440 245 3 11 1 28 -4 39 -22 40 -45 35 -158 -33 -127
-76 -252 -134 -417 -192 l-120 -41 -110 37 c-195 67 -351 140 -481 227 -38 24
-60 33 -74 28 -27 -8 -44 -40 -36 -65 12 -38 291 -193 443 -246 28 -10 52 -22
52 -25 0 -14 -251 -51 -430 -64 l-85 -7 -22 82 c-69 248 -251 469 -563 682
-95 65 -239 148 -257 148 -11 0 -38 -73 -59 -165 -21 -92 -21 -237 1 -312 42
-147 165 -304 290 -371 l60 -32 -55 6 c-59 7 -269 48 -332 64 -37 11 -38 11
-38 60 0 195 -75 414 -216 625 -64 97 -231 294 -295 349 l-44 37 -32 -38 c-45
-53 -110 -187 -128 -264 -42 -181 10 -394 130 -527 l48 -53 -54 24 c-30 13
-103 48 -162 77 -82 41 -106 58 -101 69 40 103 43 375 5 526 -30 123 -104 305
-178 439 -96 175 -81 163 -141 116 -65 -52 -140 -147 -181 -227 -79 -157 -81
-340 -5 -496 13 -28 22 -52 20 -54 -4 -4 -92 67 -198 159 l-66 58 44 88 c97
192 122 436 75 722 -20 120 -66 295 -82 314 -11 12 -59 -9 -143 -64 -123 -81
-204 -178 -248 -295 -18 -51 -22 -81 -22 -198 l0 -139 -23 29 c-35 43 -173
251 -173 261 0 4 18 26 41 47 81 79 156 208 203 352 51 154 67 254 73 461 l6
192 -28 0 c-46 0 -147 -30 -225 -67 -99 -47 -201 -149 -249 -248 -33 -68 -62
-192 -56 -242 1 -13 -1 -21 -6 -16 -11 11 -73 175 -99 263 -12 40 -24 78 -26
85 -3 7 22 29 58 52 123 77 244 210 322 353 85 157 194 503 164 522 -21 13
-157 9 -233 -7 -186 -39 -326 -160 -395 -343 -15 -40 -18 -42 -23 -21 -6 24
-14 130 -22 286 l-4 81 72 22 c137 41 267 129 400 269 98 104 267 367 267 415
0 10 -25 23 -72 38 -104 33 -267 32 -353 -2 -102 -39 -187 -103 -248 -185
l-30 -40 7 60 c3 33 16 108 27 166 l21 106 79 6 c248 19 504 164 719 408 39
45 69 86 68 91 -7 19 -142 87 -208 104 -84 22 -219 21 -285 -1 -67 -23 -130
-60 -182 -108 -24 -22 -43 -37 -43 -34 0 13 107 255 122 273 6 8 20 9 46 3 59
-14 202 -18 265 -8 75 12 238 64 302 97 135 67 315 187 315 208 0 15 -66 75
-133 119 -144 96 -329 109 -482 35 -33 -16 -61 -28 -62 -27 -3 4 145 198 171
225 l23 24 59 -25 c93 -39 168 -51 309 -51 115 0 145 4 254 33 110 30 195 60
283 101 26 12 26 14 13 40 -52 100 -174 205 -280 240 -69 23 -195 28 -270 10
-22 -5 -41 -7 -43 -6 -1 2 35 36 81 76 l85 73 118 2 c135 2 206 17 348 75 110
44 175 85 316 195 105 83 220 194 220 214 0 16 -175 96 -250 116 -36 9 -108
19 -160 22 -115 6 -230 -18 -344 -72 -148 -70 -305 -282 -307 -414 0 -54 -2
-57 -47 -95 -26 -21 -86 -74 -134 -118 -49 -44 -88 -78 -88 -76 0 2 21 45 46
97 78 163 97 242 98 416 1 118 -3 162 -17 208 -10 31 -21 57 -26 57 -5 0 -35
-20 -67 -44z"/>
</g>
</svg>
