<svg xmlns="http://www.w3.org/2000/svg" xmlns:xlink="http://www.w3.org/1999/xlink" data-name="Layer 1" width="850" height="605" viewBox="0 0 850 605"><path d="M596.95457,147.5H407.575a56.09681,56.09681,0,0,0-56.0333,56.0333V220.651a2.60094,2.60094,0,0,0-3.2909,2.53968v13.16358a2.60094,2.60094,0,0,0,3.2909,2.53968v19.93154a2.60068,2.60068,0,0,0-3.2909,2.5396v32.909a2.60071,2.60071,0,0,0,3.2909,2.5396v12.03346a2.60068,2.60068,0,0,0-3.2909,2.5396v32.909a2.60068,2.60068,0,0,0,3.2909,2.5396V694.359a56.09681,56.09681,0,0,0,56.0333,56.0333H596.95457a56.09681,56.09681,0,0,0,56.0333-56.0333V203.5333A56.09681,56.09681,0,0,0,596.95457,147.5Zm44.18607,546.859a44.23621,44.23621,0,0,1-44.18607,44.18607H407.575A44.23621,44.23621,0,0,1,363.389,694.359V203.5333A44.23622,44.23622,0,0,1,407.575,159.34723H596.95457a44.23622,44.23622,0,0,1,44.18607,44.18607Z" transform="translate(-175 -147.5)" fill="#3f3d56"/><path d="M596.95457,745.12686H407.575A50.82555,50.82555,0,0,1,356.80716,694.359V203.5333A50.82555,50.82555,0,0,1,407.575,152.76543H596.95457a50.82555,50.82555,0,0,1,50.76786,50.76787V694.359A50.82555,50.82555,0,0,1,596.95457,745.12686Z" transform="translate(-175 -147.5)" fill="#e6e6e6"/><path d="M601.63445,737.22871H402.8953A34.2798,34.2798,0,0,1,368.65438,702.988V194.90434a34.27967,34.27967,0,0,1,34.24076-34.24075H428.813a5.66578,5.66578,0,0,1,5.65928,5.65944A16.7374,16.7374,0,0,0,451.191,183.04169h99.51475A16.73744,16.73744,0,0,0,567.42455,166.323a5.66579,5.66579,0,0,1,5.65928-5.65944h28.55046a34.27979,34.27979,0,0,1,34.24091,34.24075V702.988A34.27966,34.27966,0,0,1,601.63445,737.22871Z" transform="translate(-175 -147.5)" fill="#fff"/><path d="M510.82113,172.18173H487.12667a2.63272,2.63272,0,0,1,0-5.26544h23.69446a2.63272,2.63272,0,0,1,0,5.26544Z" transform="translate(-175 -147.5)" fill="#fff"/><circle cx="352.27561" cy="22.70719" r="1.31636" fill="#fff"/><rect x="186.99023" y="116" width="280.28735" height="3" fill="#e6e6e6"/><rect x="186.99023" y="176" width="280.28735" height="3" fill="#e6e6e6"/><rect x="186.99023" y="300" width="280.28735" height="3" fill="#e6e6e6"/><rect x="186.99023" y="424" width="280.28735" height="3" fill="#e6e6e6"/><rect x="186.99023" y="521" width="280.28735" height="3" fill="#e6e6e6"/><rect x="387.5415" y="117.5" width="3" height="184" fill="#e6e6e6"/><rect x="247.22656" y="301.44629" width="3" height="221.05371" fill="#e6e6e6"/><rect x="248.72656" y="362.08252" width="212.14868" height="3" fill="#e6e6e6"/><rect x="387.86426" y="522.5" width="3" height="67.22852" fill="#e6e6e6"/><rect x="193.1543" y="239.22852" width="195.38721" height="3" fill="#e6e6e6"/><rect x="428.18217" y="154.90786" width="3.00015" height="114.53144" transform="translate(-223.59965 34.82579) rotate(-22.7088)" fill="#e6e6e6"/><rect x="367.13208" y="35.5415" width="3" height="81.9585" fill="#e6e6e6"/><path d="M622.49023,310.5c0,26.88036-41.55938,89.516-53.70465,107.24669a3.99186,3.99186,0,0,1-6.59069,0C550.04962,400.016,508.49023,337.38036,508.49023,310.5a57,57,0,0,1,114,0Z" transform="translate(-175 -147.5)" fill="#068e43"/><circle cx="390.49023" cy="159" r="29" fill="#fff"/><rect x="387.32778" y="558.75004" width="245.38204" height="2.99991" transform="translate(-394.25359 618.08148) rotate(-63.41202)" fill="#e6e6e6"/>
<circle cx="390.49023" cy="301" r="13" fill="#068e43"/></svg>